<svg xmlns="http://www.w3.org/2000/svg" xmlns:xlink="http://www.w3.org/1999/xlink" width="189" zoomAndPan="magnify" viewBox="0 0 141.75 141.750002" height="189" preserveAspectRatio="xMidYMid meet" version="1.2"><defs><clipPath id="231e5de76e"><path d="M 2.476562 2.476562 L 138.753906 2.476562 L 138.753906 138.753906 L 2.476562 138.753906 Z M 2.476562 2.476562 "/></clipPath></defs><g id="f6ca792d42"><g clip-rule="nonzero" clip-path="url(#231e5de76e)"><path style=" stroke:none;fill-rule:nonzero;fill:#8c52ff;fill-opacity:1;" d="M 70.613281 138.753906 C 33.085938 138.753906 2.476562 108.144531 2.476562 70.613281 C 2.476562 33.085938 33.085938 2.476562 70.613281 2.476562 C 108.144531 2.476562 138.753906 33.085938 138.753906 70.613281 C 138.753906 108.144531 108.144531 138.753906 70.613281 138.753906 Z M 70.613281 138.753906 "/></g><path style=" stroke:none;fill-rule:nonzero;fill:#8c52ff;fill-opacity:1;" d="M 70.613281 125.976562 C 40.273438 125.976562 15.253906 101.222656 15.253906 70.613281 C 15.253906 40.273438 40.273438 15.253906 70.613281 15.253906 C 101.222656 15.253906 125.976562 40.273438 125.976562 70.613281 C 125.976562 101.222656 101.222656 125.976562 70.613281 125.976562 Z M 70.613281 125.976562 "/><path style=" stroke:none;fill-rule:nonzero;fill:#fefefe;fill-opacity:1;" d="M 70.613281 73.808594 C 67.421875 73.808594 64.757812 71.148438 64.757812 67.6875 L 64.757812 38.140625 C 64.757812 34.683594 67.421875 32.019531 70.613281 32.019531 C 74.074219 32.019531 76.738281 34.683594 76.738281 38.140625 L 76.738281 67.6875 C 76.738281 70.878906 74.074219 73.808594 70.613281 73.808594 Z M 70.613281 73.808594 "/><path style=" stroke:none;fill-rule:nonzero;fill:#fefefe;fill-opacity:1;" d="M 70.613281 109.207031 C 51.984375 109.207031 36.8125 94.039062 36.8125 75.40625 C 36.8125 62.363281 44.265625 50.652344 55.976562 44.796875 C 56.507812 44.796875 57.039062 44.796875 57.574219 44.796875 C 58.105469 45.0625 58.371094 45.328125 58.636719 45.859375 L 61.566406 53.578125 C 61.832031 54.378906 61.566406 55.441406 60.765625 55.976562 C 53.3125 59.703125 49.054688 67.15625 49.054688 75.140625 C 49.054688 87.382812 58.636719 97.230469 70.878906 97.230469 C 82.859375 97.230469 92.707031 87.382812 92.707031 75.140625 C 92.707031 67.15625 88.179688 59.703125 80.996094 55.976562 C 80.195312 55.441406 79.664062 54.378906 80.195312 53.578125 L 83.390625 46.128906 C 83.390625 45.59375 83.921875 45.0625 84.457031 44.796875 C 84.722656 44.796875 85.253906 44.796875 85.785156 44.796875 C 97.230469 50.386719 104.683594 62.363281 104.683594 75.140625 C 104.683594 94.039062 89.511719 109.207031 70.613281 109.207031 Z M 70.613281 109.207031 "/></g></svg>