<svg xmlns="http://www.w3.org/2000/svg" xmlns:xlink="http://www.w3.org/1999/xlink" width="189" zoomAndPan="magnify" viewBox="0 0 141.75 141.750002" height="189" preserveAspectRatio="xMidYMid meet" version="1.2"><defs><clipPath id="9e272bd2ed"><path d="M 4 6.167969 L 138 6.167969 L 138 135.703125 L 4 135.703125 Z M 4 6.167969 "/></clipPath></defs><g id="8cb5ec6650"><g clip-rule="nonzero" clip-path="url(#9e272bd2ed)"><path style=" stroke:none;fill-rule:nonzero;fill:#8c52ff;fill-opacity:1;" d="M 93.769531 135.285156 C 90.738281 135.285156 87.667969 134.824219 84.640625 133.917969 C 77.28125 131.710938 73.609375 130.980469 72.0625 130.738281 L 69.21875 130.726562 C 67.660156 130.953125 63.980469 131.652344 56.613281 133.789062 C 53.675781 134.640625 50.691406 135.074219 47.75 135.074219 C 40.824219 135.074219 34.273438 132.628906 29.300781 128.191406 C 23.953125 123.417969 20.6875 116.761719 19.851562 108.933594 C 18.964844 100.605469 21.246094 94.097656 24.117188 89.171875 C 17.089844 86.847656 10.832031 81.070312 7.199219 73.171875 C 4.289062 66.84375 3.390625 59.84375 4.664062 53.457031 C 6.140625 46.050781 10.457031 40.0625 16.507812 37.027344 C 19.332031 35.609375 22.375 34.890625 25.550781 34.890625 C 26.457031 34.890625 27.359375 34.949219 28.261719 35.066406 C 28.375 29.167969 29.855469 23.5 32.5625 18.753906 C 36.519531 11.808594 42.832031 7.394531 49.871094 6.640625 C 50.589844 6.5625 51.320312 6.523438 52.039062 6.523438 C 59.324219 6.523438 66.125 10.382812 70.875 16.9375 C 75.894531 10.191406 82.921875 6.210938 90.300781 6.210938 C 91.910156 6.210938 93.515625 6.402344 95.082031 6.785156 C 101.964844 8.453125 107.675781 13.664062 110.75 21.085938 C 112.5625 25.46875 113.382812 30.425781 113.179688 35.492188 C 114.101562 35.371094 115.03125 35.308594 115.957031 35.308594 C 119.207031 35.308594 122.304688 36.054688 125.175781 37.527344 C 131.199219 40.621094 135.464844 46.648438 136.878906 54.066406 C 138.101562 60.46875 137.140625 67.457031 134.179688 73.757812 C 130.546875 81.480469 124.367188 87.15625 117.449219 89.492188 C 120.308594 94.457031 122.578125 101.015625 121.613281 109.40625 C 120.71875 117.164062 117.433594 123.761719 112.113281 128.476562 C 107.160156 132.867188 100.644531 135.285156 93.773438 135.285156 L 93.769531 135.285156 "/></g><path style=" stroke:none;fill-rule:nonzero;fill:#ffffff;fill-opacity:1;" d="M 132.96875 54.882812 C 131.796875 48.746094 128.316406 43.785156 123.414062 41.265625 C 121.097656 40.078125 118.589844 39.476562 115.957031 39.476562 C 113.402344 39.476562 110.859375 40.050781 108.449219 41.117188 C 109.832031 34.722656 109.351562 28.207031 107.085938 22.742188 C 104.523438 16.546875 99.816406 12.210938 94.175781 10.84375 C 92.910156 10.535156 91.605469 10.378906 90.300781 10.378906 C 82.332031 10.378906 74.835938 16.21875 70.800781 24.957031 C 67.125 16.402344 60.03125 10.691406 52.039062 10.691406 C 51.457031 10.691406 50.863281 10.722656 50.28125 10.785156 C 44.507812 11.40625 39.296875 15.085938 35.992188 20.886719 C 33.03125 26.070312 31.761719 32.5625 32.410156 39.167969 C 32.453125 39.613281 32.503906 40.054688 32.566406 40.492188 C 30.308594 39.5625 27.9375 39.058594 25.550781 39.058594 C 22.976562 39.058594 20.515625 39.636719 18.234375 40.78125 C 13.316406 43.253906 9.792969 48.183594 8.570312 54.308594 C 7.472656 59.804688 8.261719 65.863281 10.796875 71.363281 C 14.921875 80.335938 22.847656 86.132812 30.984375 86.132812 C 31.050781 86.132812 31.113281 86.128906 31.179688 86.128906 C 26.550781 91.839844 22.796875 98.886719 23.816406 108.472656 C 24.535156 115.230469 27.328125 120.949219 31.890625 125.023438 C 36.140625 128.816406 41.773438 130.90625 47.75 130.90625 C 50.332031 130.90625 52.953125 130.523438 55.546875 129.773438 C 64.566406 127.160156 68.355469 126.605469 69.585938 126.488281 L 71.730469 126.496094 C 72.957031 126.625 76.730469 127.210938 85.742188 129.914062 C 88.410156 130.710938 91.109375 131.117188 93.769531 131.117188 C 93.773438 131.117188 93.773438 131.117188 93.773438 131.117188 C 99.699219 131.117188 105.296875 129.050781 109.53125 125.296875 C 114.074219 121.273438 116.878906 115.605469 117.652344 108.90625 C 118.753906 99.332031 115.058594 92.253906 110.484375 86.5 C 118.546875 86.480469 126.4375 80.761719 130.597656 71.917969 C 133.175781 66.4375 134.015625 60.386719 132.96875 54.882812 "/><path style=" stroke:none;fill-rule:nonzero;fill:#8c52ff;fill-opacity:1;" d="M 96.855469 82.207031 C 91.996094 76.941406 89.554688 69.738281 84.40625 64.734375 C 81.863281 62.261719 78.691406 60.273438 75.289062 59.433594 C 75.070312 59.382812 70.945312 58.710938 70.945312 59.140625 C 70.945312 58.710938 66.816406 59.34375 66.597656 59.394531 C 63.1875 60.203125 59.996094 62.160156 57.433594 64.609375 C 52.242188 69.566406 49.742188 76.746094 44.839844 81.964844 C 37.914062 89.335938 29.582031 96.09375 30.816406 107.660156 C 32.144531 120.140625 42.691406 125.867188 53.664062 122.6875 C 68.390625 118.417969 70.691406 119.148438 70.691406 119.148438 C 70.691406 119.148438 72.996094 118.4375 87.6875 122.84375 C 98.628906 126.125 109.222656 120.496094 110.660156 108.027344 C 111.992188 96.472656 103.714844 89.636719 96.855469 82.207031 "/><path style=" stroke:none;fill-rule:nonzero;fill:#8c52ff;fill-opacity:1;" d="M 101.550781 39.65625 C 99.28125 49.863281 91.589844 56.71875 84.371094 54.96875 C 77.152344 53.21875 73.136719 43.527344 75.40625 33.320312 C 77.675781 23.113281 85.367188 16.257812 92.585938 18.007812 C 99.804688 19.757812 103.816406 29.449219 101.550781 39.65625 "/><path style=" stroke:none;fill-rule:nonzero;fill:#8c52ff;fill-opacity:1;" d="M 66.292969 35.535156 C 67.316406 45.960938 62.128906 55.054688 54.707031 55.847656 C 47.285156 56.644531 40.4375 48.839844 39.414062 38.417969 C 38.390625 27.992188 43.578125 18.898438 51 18.101562 C 58.421875 17.304688 65.265625 25.113281 66.292969 35.535156 "/><path style=" stroke:none;fill-rule:nonzero;fill:#8c52ff;fill-opacity:1;" d="M 39.398438 57.011719 C 43.253906 65.398438 41.398438 74.699219 35.253906 77.78125 C 29.109375 80.863281 21 76.566406 17.140625 68.179688 C 13.285156 59.792969 15.140625 50.496094 21.285156 47.414062 C 27.429688 44.328125 35.539062 48.625 39.398438 57.011719 "/><path style=" stroke:none;fill-rule:nonzero;fill:#8c52ff;fill-opacity:1;" d="M 102.117188 57.300781 C 98.191406 65.652344 99.96875 74.96875 106.085938 78.109375 C 112.203125 81.25 120.347656 77.023438 124.277344 68.675781 C 128.207031 60.324219 126.429688 51.007812 120.3125 47.871094 C 114.191406 44.730469 106.046875 48.953125 102.117188 57.300781 "/></g></svg>