<svg xmlns="http://www.w3.org/2000/svg" xmlns:xlink="http://www.w3.org/1999/xlink" width="756" zoomAndPan="magnify" viewBox="0 0 567 141.750002" height="189" preserveAspectRatio="xMidYMid meet" version="1.2"><defs><clipPath id="aadd58aa0f"><path d="M 448 14.148438 L 561 14.148438 L 561 123.472656 L 448 123.472656 Z M 448 14.148438 "/></clipPath></defs><g id="a381c81bdc"><g style="fill:#8c52ff;fill-opacity:1;"><g transform="translate(3.338163, 122.025727)"><path style="stroke:none" d="M 38.296875 -74.84375 L 38.296875 -79.109375 C 38.296875 -81.742188 37.609375 -84 36.234375 -85.875 C 34.867188 -87.757812 32.816406 -88.703125 30.078125 -88.703125 C 28.804688 -88.703125 27.535156 -88.382812 26.265625 -87.75 C 24.992188 -87.113281 23.9375 -86.097656 23.09375 -84.703125 C 22.257812 -83.304688 21.84375 -81.441406 21.84375 -79.109375 C 21.84375 -76.722656 22.3125 -74.675781 23.25 -72.96875 C 24.195312 -71.269531 25.519531 -69.6875 27.21875 -68.21875 C 28.914062 -66.75 30.882812 -65.125 33.125 -63.34375 C 36.675781 -60.601562 40 -57.9375 43.09375 -55.34375 C 46.1875 -52.757812 48.898438 -50.019531 51.234375 -47.125 C 53.566406 -44.226562 55.394531 -40.976562 56.71875 -37.375 C 58.039062 -33.769531 58.703125 -29.5625 58.703125 -24.75 C 58.703125 -21.195312 58.023438 -17.832031 56.671875 -14.65625 C 55.328125 -11.476562 53.425781 -8.660156 50.96875 -6.203125 C 48.507812 -3.742188 45.550781 -1.816406 42.09375 -0.421875 C 38.644531 0.972656 34.816406 1.671875 30.609375 1.671875 C 26.035156 1.671875 22.023438 0.925781 18.578125 -0.5625 C 15.128906 -2.0625 12.25 -4.082031 9.9375 -6.625 C 7.625 -9.164062 5.894531 -12.082031 4.75 -15.375 C 3.613281 -18.675781 3.046875 -22.101562 3.046875 -25.65625 L 3.046875 -29.6875 C 3.046875 -31.007812 3.207031 -31.945312 3.53125 -32.5 C 3.863281 -33.0625 4.566406 -33.34375 5.640625 -33.34375 L 19.484375 -33.34375 C 20.554688 -33.34375 21.253906 -33.113281 21.578125 -32.65625 C 21.910156 -32.195312 22.078125 -31.382812 22.078125 -30.21875 L 22.078125 -26.796875 C 22.078125 -24.265625 22.53125 -22.257812 23.4375 -20.78125 C 24.351562 -19.3125 25.484375 -18.269531 26.828125 -17.65625 C 28.179688 -17.050781 29.492188 -16.75 30.765625 -16.75 C 33.148438 -16.75 35.191406 -17.5625 36.890625 -19.1875 C 38.585938 -20.8125 39.4375 -23.019531 39.4375 -25.8125 C 39.4375 -28.300781 38.976562 -30.445312 38.0625 -32.25 C 37.15625 -34.050781 35.722656 -35.863281 33.765625 -37.6875 C 31.804688 -39.507812 29.253906 -41.691406 26.109375 -44.234375 C 22.148438 -47.484375 18.710938 -50.347656 15.796875 -52.828125 C 12.878906 -55.316406 10.476562 -57.789062 8.59375 -60.25 C 6.71875 -62.71875 5.320312 -65.472656 4.40625 -68.515625 C 3.5 -71.566406 3.046875 -75.273438 3.046875 -79.640625 C 3.046875 -83.597656 3.628906 -87.085938 4.796875 -90.109375 C 5.960938 -93.128906 7.519531 -95.703125 9.46875 -97.828125 C 11.425781 -99.960938 13.597656 -101.703125 15.984375 -103.046875 C 18.367188 -104.390625 20.78125 -105.378906 23.21875 -106.015625 C 25.65625 -106.648438 27.941406 -106.96875 30.078125 -106.96875 C 35.347656 -106.96875 40.015625 -105.820312 44.078125 -103.53125 C 48.140625 -101.25 51.320312 -98.023438 53.625 -93.859375 C 55.9375 -89.703125 57.09375 -84.804688 57.09375 -79.171875 L 57.09375 -74.84375 C 57.09375 -73.769531 56.898438 -73.019531 56.515625 -72.59375 C 56.140625 -72.164062 55.34375 -71.953125 54.125 -71.953125 L 40.5 -71.953125 C 39.539062 -71.953125 38.929688 -72.164062 38.671875 -72.59375 C 38.421875 -73.019531 38.296875 -73.769531 38.296875 -74.84375 Z M 38.296875 -74.84375 "/></g></g><g style="fill:#8c52ff;fill-opacity:1;"><g transform="translate(64.244536, 122.025727)"><path style="stroke:none" d="M 60.671875 -80.546875 L 60.671875 -24.75 C 60.671875 -20.632812 59.910156 -16.9375 58.390625 -13.65625 C 56.867188 -10.382812 54.785156 -7.609375 52.140625 -5.328125 C 49.503906 -3.046875 46.460938 -1.304688 43.015625 -0.109375 C 39.566406 1.078125 35.9375 1.671875 32.125 1.671875 C 28.320312 1.671875 24.71875 1.050781 21.3125 -0.1875 C 17.914062 -1.4375 14.894531 -3.203125 12.25 -5.484375 C 9.613281 -7.765625 7.546875 -10.539062 6.046875 -13.8125 C 4.554688 -17.09375 3.8125 -20.738281 3.8125 -24.75 L 3.8125 -80.546875 C 3.8125 -84.660156 4.554688 -88.351562 6.046875 -91.625 C 7.546875 -94.894531 9.613281 -97.671875 12.25 -99.953125 C 14.894531 -102.242188 17.914062 -103.984375 21.3125 -105.171875 C 24.71875 -106.367188 28.320312 -106.96875 32.125 -106.96875 C 35.9375 -106.96875 39.566406 -106.367188 43.015625 -105.171875 C 46.460938 -103.984375 49.503906 -102.242188 52.140625 -99.953125 C 54.785156 -97.671875 56.867188 -94.90625 58.390625 -91.65625 C 59.910156 -88.414062 60.671875 -84.710938 60.671875 -80.546875 Z M 32.28125 -88.703125 C 29.6875 -88.703125 27.664062 -87.757812 26.21875 -85.875 C 24.78125 -84 24.0625 -81.84375 24.0625 -79.40625 L 24.0625 -25.8125 C 24.0625 -23.425781 24.757812 -21.304688 26.15625 -19.453125 C 27.550781 -17.597656 29.539062 -16.671875 32.125 -16.671875 C 34.769531 -16.671875 36.8125 -17.519531 38.25 -19.21875 C 39.695312 -20.925781 40.421875 -22.972656 40.421875 -25.359375 L 40.421875 -79.40625 C 40.421875 -81.84375 39.695312 -84 38.25 -85.875 C 36.8125 -87.757812 34.820312 -88.703125 32.28125 -88.703125 Z M 32.28125 -88.703125 "/></g></g><g style="fill:#8c52ff;fill-opacity:1;"><g transform="translate(128.729165, 122.025727)"><path style="stroke:none" d="M 53.75 -102.625 L 53.75 -89.6875 C 53.75 -87.8125 53.0625 -86.875 51.6875 -86.875 L 25.734375 -86.875 L 25.734375 -60.90625 L 45.75 -60.90625 C 46.363281 -60.90625 46.898438 -60.710938 47.359375 -60.328125 C 47.816406 -59.953125 48.046875 -59.257812 48.046875 -58.25 L 48.046875 -45.296875 C 48.046875 -43.523438 47.28125 -42.640625 45.75 -42.640625 L 25.734375 -42.640625 L 25.734375 -2.890625 C 25.734375 -0.960938 24.921875 0 23.296875 0 L 8.0625 0 C 6.34375 0 5.484375 -0.960938 5.484375 -2.890625 L 5.484375 -102.40625 C 5.484375 -104.382812 6.34375 -105.375 8.0625 -105.375 L 51.6875 -105.375 C 53.0625 -105.375 53.75 -104.457031 53.75 -102.625 Z M 53.75 -102.625 "/></g></g><g style="fill:#8c52ff;fill-opacity:1;"><g transform="translate(183.544901, 122.025727)"><path style="stroke:none" d="M 50.78125 -86.875 L 36.625 -86.875 L 36.625 -2.671875 C 36.625 -1.804688 36.40625 -1.144531 35.96875 -0.6875 C 35.539062 -0.226562 35.019531 0 34.40625 0 L 18.5 0 C 17.84375 0 17.3125 -0.226562 16.90625 -0.6875 C 16.5 -1.144531 16.296875 -1.804688 16.296875 -2.671875 L 16.296875 -86.875 L 2.125 -86.875 C 1.46875 -86.875 0.9375 -87.097656 0.53125 -87.546875 C 0.125 -88.003906 -0.078125 -88.691406 -0.078125 -89.609375 L -0.078125 -102.546875 C -0.078125 -103.460938 0.125 -104.160156 0.53125 -104.640625 C 0.9375 -105.128906 1.46875 -105.375 2.125 -105.375 L 50.78125 -105.375 C 51.4375 -105.375 51.96875 -105.144531 52.375 -104.6875 C 52.78125 -104.226562 52.984375 -103.539062 52.984375 -102.625 L 52.984375 -89.609375 C 52.984375 -88.691406 52.78125 -88.003906 52.375 -87.546875 C 51.96875 -87.097656 51.4375 -86.875 50.78125 -86.875 Z M 50.78125 -86.875 "/></g></g><g style="fill:#8c52ff;fill-opacity:1;"><g transform="translate(236.38118, 122.025727)"><path style="stroke:none" d=""/></g></g><g style="fill:#8c52ff;fill-opacity:1;"><g transform="translate(271.706877, 122.025727)"><path style="stroke:none" d="M 29.6875 -41.71875 L 30.453125 -32.8125 L 31.296875 -41.71875 L 40.8125 -102.859375 C 40.90625 -103.722656 41.253906 -104.359375 41.859375 -104.765625 C 42.472656 -105.171875 43.140625 -105.375 43.859375 -105.375 L 59.15625 -105.375 C 59.863281 -105.375 60.332031 -105.117188 60.5625 -104.609375 C 60.789062 -104.097656 60.804688 -103.410156 60.609375 -102.546875 L 39.4375 -2.671875 C 38.976562 -0.890625 38.015625 0 36.546875 0 L 24.4375 0 C 22.914062 0 21.925781 -0.890625 21.46875 -2.671875 L 0.296875 -102.40625 C -0.0976562 -104.382812 0.382812 -105.375 1.75 -105.375 L 17.046875 -105.375 C 17.816406 -105.375 18.492188 -105.171875 19.078125 -104.765625 C 19.660156 -104.359375 20 -103.722656 20.09375 -102.859375 Z M 29.6875 -41.71875 "/></g></g><g style="fill:#8c52ff;fill-opacity:1;"><g transform="translate(332.689389, 122.025727)"><path style="stroke:none" d="M 25.734375 -18.34375 L 53.984375 -18.34375 C 54.585938 -18.34375 55.101562 -18.125 55.53125 -17.6875 C 55.96875 -17.257812 56.1875 -16.617188 56.1875 -15.765625 L 56.1875 -2.671875 C 56.1875 -1.753906 55.96875 -1.078125 55.53125 -0.640625 C 55.101562 -0.210938 54.585938 0 53.984375 0 L 8.0625 0 C 6.34375 0 5.484375 -0.960938 5.484375 -2.890625 L 5.484375 -102.40625 C 5.484375 -104.382812 6.34375 -105.375 8.0625 -105.375 L 53.59375 -105.375 C 55.019531 -105.375 55.734375 -104.429688 55.734375 -102.546875 L 55.734375 -89.609375 C 55.734375 -87.785156 55.019531 -86.875 53.59375 -86.875 L 25.734375 -86.875 L 25.734375 -62.421875 L 47.96875 -62.421875 C 48.625 -62.421875 49.191406 -62.21875 49.671875 -61.8125 C 50.160156 -61.414062 50.40625 -60.734375 50.40625 -59.765625 L 50.40625 -46.75 C 50.40625 -45.832031 50.175781 -45.171875 49.71875 -44.765625 C 49.257812 -44.359375 48.675781 -44.15625 47.96875 -44.15625 L 25.734375 -44.15625 Z M 25.734375 -18.34375 "/></g></g><g style="fill:#8c52ff;fill-opacity:1;"><g transform="translate(390.62656, 122.025727)"><path style="stroke:none" d="M 50.78125 -86.875 L 36.625 -86.875 L 36.625 -2.671875 C 36.625 -1.804688 36.40625 -1.144531 35.96875 -0.6875 C 35.539062 -0.226562 35.019531 0 34.40625 0 L 18.5 0 C 17.84375 0 17.3125 -0.226562 16.90625 -0.6875 C 16.5 -1.144531 16.296875 -1.804688 16.296875 -2.671875 L 16.296875 -86.875 L 2.125 -86.875 C 1.46875 -86.875 0.9375 -87.097656 0.53125 -87.546875 C 0.125 -88.003906 -0.078125 -88.691406 -0.078125 -89.609375 L -0.078125 -102.546875 C -0.078125 -103.460938 0.125 -104.160156 0.53125 -104.640625 C 0.9375 -105.128906 1.46875 -105.375 2.125 -105.375 L 50.78125 -105.375 C 51.4375 -105.375 51.96875 -105.144531 52.375 -104.6875 C 52.78125 -104.226562 52.984375 -103.539062 52.984375 -102.625 L 52.984375 -89.609375 C 52.984375 -88.691406 52.78125 -88.003906 52.375 -87.546875 C 51.96875 -87.097656 51.4375 -86.875 50.78125 -86.875 Z M 50.78125 -86.875 "/></g></g><g clip-rule="nonzero" clip-path="url(#aadd58aa0f)"><path style=" stroke:none;fill-rule:nonzero;fill:#8c52ff;fill-opacity:1;" d="M 523.929688 123.128906 C 521.371094 123.128906 518.777344 122.742188 516.222656 121.976562 C 510.011719 120.113281 506.914062 119.496094 505.605469 119.292969 L 503.207031 119.28125 C 501.890625 119.472656 498.785156 120.0625 492.570312 121.867188 C 490.089844 122.585938 487.570312 122.949219 485.085938 122.949219 C 479.242188 122.949219 473.710938 120.886719 469.511719 117.140625 C 465 113.113281 462.242188 107.496094 461.539062 100.890625 C 460.789062 93.855469 462.714844 88.367188 465.140625 84.210938 C 459.207031 82.246094 453.925781 77.371094 450.859375 70.703125 C 448.40625 65.363281 447.644531 59.457031 448.71875 54.066406 C 449.96875 47.8125 453.609375 42.757812 458.71875 40.195312 C 461.101562 39 463.667969 38.394531 466.351562 38.394531 C 467.113281 38.394531 467.878906 38.441406 468.636719 38.542969 C 468.734375 33.5625 469.984375 28.777344 472.269531 24.773438 C 475.609375 18.914062 480.933594 15.1875 486.878906 14.550781 C 487.484375 14.484375 488.097656 14.453125 488.707031 14.453125 C 494.855469 14.453125 500.59375 17.710938 504.605469 23.242188 C 508.839844 17.546875 514.769531 14.1875 521 14.1875 C 522.359375 14.1875 523.714844 14.351562 525.035156 14.671875 C 530.847656 16.078125 535.667969 20.480469 538.261719 26.742188 C 539.792969 30.441406 540.484375 34.625 540.308594 38.902344 C 541.089844 38.796875 541.871094 38.746094 542.65625 38.746094 C 545.398438 38.746094 548.015625 39.378906 550.433594 40.617188 C 555.519531 43.230469 559.121094 48.316406 560.316406 54.578125 C 561.34375 59.980469 560.535156 65.882812 558.035156 71.199219 C 554.96875 77.714844 549.753906 82.507812 543.914062 84.476562 C 546.328125 88.667969 548.242188 94.207031 547.429688 101.285156 C 546.675781 107.835938 543.902344 113.402344 539.410156 117.382812 C 535.230469 121.089844 529.730469 123.128906 523.929688 123.128906 "/></g><path style=" stroke:none;fill-rule:nonzero;fill:#ffffff;fill-opacity:1;" d="M 557.011719 55.265625 C 556.027344 50.085938 553.085938 45.898438 548.949219 43.777344 C 546.996094 42.773438 544.878906 42.265625 542.65625 42.265625 C 540.496094 42.265625 538.351562 42.75 536.320312 43.648438 C 537.484375 38.253906 537.078125 32.75 535.167969 28.136719 C 533.003906 22.910156 529.03125 19.25 524.273438 18.097656 C 523.203125 17.835938 522.101562 17.707031 521 17.707031 C 514.277344 17.707031 507.949219 22.632812 504.542969 30.011719 C 501.4375 22.789062 495.453125 17.96875 488.707031 17.96875 C 488.214844 17.96875 487.714844 17.996094 487.222656 18.046875 C 482.347656 18.570312 477.953125 21.675781 475.160156 26.574219 C 472.664062 30.949219 471.59375 36.429688 472.140625 42.003906 C 472.175781 42.378906 472.21875 42.75 472.269531 43.121094 C 470.363281 42.335938 468.367188 41.910156 466.351562 41.910156 C 464.175781 41.910156 462.101562 42.402344 460.175781 43.367188 C 456.023438 45.453125 453.046875 49.613281 452.015625 54.78125 C 451.089844 59.421875 451.757812 64.535156 453.894531 69.179688 C 457.378906 76.753906 464.066406 81.644531 470.9375 81.644531 C 470.992188 81.644531 471.046875 81.640625 471.101562 81.640625 C 467.195312 86.460938 464.023438 92.410156 464.886719 100.5 C 465.492188 106.203125 467.851562 111.03125 471.703125 114.46875 C 475.289062 117.667969 480.042969 119.433594 485.085938 119.433594 C 487.265625 119.433594 489.480469 119.109375 491.667969 118.476562 C 499.277344 116.269531 502.476562 115.804688 503.515625 115.703125 L 505.328125 115.710938 C 506.363281 115.820312 509.546875 116.3125 517.152344 118.59375 C 519.40625 119.269531 521.683594 119.613281 523.929688 119.613281 C 528.933594 119.613281 533.660156 117.867188 537.230469 114.699219 C 541.066406 111.304688 543.433594 106.519531 544.085938 100.867188 C 545.015625 92.785156 541.898438 86.808594 538.035156 81.953125 C 544.839844 81.9375 551.5 77.109375 555.011719 69.648438 C 557.1875 65.019531 557.898438 59.914062 557.011719 55.265625 "/><path style=" stroke:none;fill-rule:nonzero;fill:#8c52ff;fill-opacity:1;" d="M 526.535156 78.328125 C 522.429688 73.882812 520.371094 67.808594 516.027344 63.582031 C 513.878906 61.496094 511.203125 59.820312 508.332031 59.109375 C 508.144531 59.0625 504.664062 58.5 504.664062 58.863281 C 504.664062 58.5 501.179688 59.03125 500.992188 59.078125 C 498.117188 59.757812 495.425781 61.410156 493.257812 63.476562 C 488.878906 67.660156 486.769531 73.71875 482.628906 78.125 C 476.785156 84.34375 469.75 90.050781 470.792969 99.8125 C 471.917969 110.34375 480.816406 115.179688 490.078125 112.496094 C 502.507812 108.890625 504.449219 109.511719 504.449219 109.511719 C 504.449219 109.511719 506.394531 108.910156 518.792969 112.628906 C 528.03125 115.398438 536.972656 110.644531 538.183594 100.125 C 539.308594 90.371094 532.324219 84.601562 526.535156 78.328125 "/><path style=" stroke:none;fill-rule:nonzero;fill:#8c52ff;fill-opacity:1;" d="M 530.496094 42.417969 C 528.582031 51.03125 522.089844 56.816406 515.996094 55.339844 C 509.902344 53.863281 506.515625 45.679688 508.429688 37.066406 C 510.34375 28.453125 516.835938 22.664062 522.929688 24.144531 C 529.019531 25.621094 532.410156 33.800781 530.496094 42.417969 "/><path style=" stroke:none;fill-rule:nonzero;fill:#8c52ff;fill-opacity:1;" d="M 500.734375 38.9375 C 501.601562 47.734375 497.222656 55.410156 490.957031 56.082031 C 484.695312 56.753906 478.914062 50.167969 478.050781 41.371094 C 477.1875 32.570312 481.5625 24.894531 487.828125 24.222656 C 494.09375 23.550781 499.871094 30.140625 500.734375 38.9375 "/><path style=" stroke:none;fill-rule:nonzero;fill:#8c52ff;fill-opacity:1;" d="M 478.035156 57.066406 C 481.292969 64.144531 479.726562 71.992188 474.539062 74.59375 C 469.351562 77.195312 462.507812 73.570312 459.253906 66.492188 C 455.996094 59.414062 457.5625 51.566406 462.75 48.960938 C 467.9375 46.359375 474.78125 49.988281 478.035156 57.066406 "/><path style=" stroke:none;fill-rule:nonzero;fill:#8c52ff;fill-opacity:1;" d="M 530.976562 57.308594 C 527.660156 64.355469 529.160156 72.21875 534.324219 74.871094 C 539.488281 77.519531 546.363281 73.957031 549.679688 66.910156 C 552.996094 59.859375 551.496094 52 546.328125 49.347656 C 541.167969 46.699219 534.289062 50.261719 530.976562 57.308594 "/></g></svg>